<svg viewBox="0 0 44 44" fill="none" xmlns="http://www.w3.org/2000/svg">
<path d="M4.76 14C6.28604 10.7137 8.71973 7.93224 11.7742 5.98331C14.8287 4.03439 18.3767 2.99929 22 3C26.2329 2.99975 30.3448 4.41271 33.6835 7.01481C37.0221 9.61691 39.3965 13.2592 40.43 17.364C40.5265 17.7502 40.7725 18.0821 41.1138 18.2869C41.4552 18.4917 41.8638 18.5525 42.25 18.456C42.6362 18.3595 42.9681 18.1135 43.1729 17.7722C43.3777 17.4308 43.4385 17.0222 43.342 16.636C40.946 7.078 32.3 1.81368e-06 22 1.81368e-06C18.1563 -0.00155908 14.3793 1.00441 11.0455 2.91763C7.71179 4.83084 4.93777 7.58447 3 10.904V7.5C3 7.10218 2.84196 6.72065 2.56066 6.43934C2.27936 6.15804 1.89782 6 1.5 6C1.10218 6 0.720644 6.15804 0.43934 6.43934C0.158035 6.72065 5.92805e-09 7.10218 0 7.5V15C0 15.5304 0.210714 16.0391 0.585786 16.4142C0.960859 16.7893 1.46957 17 2 17H9.5C9.89782 17 10.2794 16.842 10.5607 16.5607C10.842 16.2794 11 15.8978 11 15.5C11 15.1022 10.842 14.7206 10.5607 14.4393C10.2794 14.158 9.89782 14 9.5 14H4.76ZM3.57 26.636C3.4688 26.2552 3.22183 25.9295 2.88244 25.7293C2.54306 25.5291 2.13853 25.4704 1.75627 25.5661C1.37402 25.6617 1.04474 25.9039 0.83961 26.2403C0.634476 26.5768 0.569959 26.9804 0.66 27.364C3.054 36.922 11.7 44 22 44C30.104 44 37.184 39.618 41 33.098V36.5C41 36.8978 41.158 37.2794 41.4393 37.5607C41.7206 37.842 42.1022 38 42.5 38C42.8978 38 43.2794 37.842 43.5607 37.5607C43.842 37.2794 44 36.8978 44 36.5V29C44 28.4696 43.7893 27.9609 43.4142 27.5858C43.0391 27.2107 42.5304 27 42 27H34.5C34.1022 27 33.7206 27.158 33.4393 27.4393C33.158 27.7206 33 28.1022 33 28.5C33 28.8978 33.158 29.2794 33.4393 29.5607C33.7206 29.842 34.1022 30 34.5 30H39.24C37.714 33.2863 35.2803 36.0678 32.2258 38.0167C29.1713 39.9656 25.6233 41.0007 22 41C13.108 41 5.638 34.89 3.57 26.636Z" fill="white"/>
</svg>
